<svg width="390" height="108" viewBox="0 0 390 108" fill="none" xmlns="http://www.w3.org/2000/svg">
<g clip-path="url(#clip0_3028_6557)">
<path d="M60.335 105.989L29.5593 64.2284L21.6368 73.933V105.996H0.0065918V1.67407H21.6368V48.2792L57.5919 1.67407H84.252L43.9072 50.6288L87.0231 105.97L60.335 105.989Z" fill="#181A26"/>
<path d="M78.335 53.9224C78.0376 46.8217 79.2013 39.733 81.7513 33.1028C84.3012 26.4727 88.1835 20.4426 93.1574 15.3841C98.1312 10.3256 104.089 6.34912 110.66 3.70234C117.232 1.05556 124.277 -0.206089 131.355 -0.00155205C138.444 -0.221871 145.503 1.02684 152.09 3.6661C158.677 6.30535 164.651 10.2783 169.64 15.338C174.628 20.3977 178.526 26.4349 181.087 33.0732C183.647 39.7114 184.816 46.8101 184.523 53.9224C184.815 61.0345 183.644 68.1306 181.083 74.7684C178.522 81.4062 174.627 87.4408 169.638 92.5003C164.649 97.5598 158.675 101.536 152.089 104.175C145.502 106.815 138.444 108.062 131.355 107.843C124.277 108.047 117.233 106.786 110.662 104.139C104.091 101.492 98.1327 97.5158 93.159 92.4574C88.1853 87.3991 84.3032 81.3651 81.7529 74.7354C79.2026 68.1057 78.0386 61.0229 78.335 53.9224ZM162.287 53.9224C162.287 34.3511 150.102 19.691 131.355 19.691C112.608 19.691 100.579 34.3848 100.579 53.9224C100.579 73.3048 112.615 88.1505 131.355 88.1505C150.095 88.1505 162.287 73.3048 162.287 53.9224Z" fill="#181A26"/>
<path d="M263.182 105.989L214.728 37.9485V105.989H193.096V1.66748H215.34L262.409 67.1974V1.66748H284.047V105.989H263.182Z" fill="#181A26"/>
<path d="M292.639 53.9151C292.406 46.7401 293.65 39.5959 296.29 32.9242C298.931 26.2525 302.914 20.1983 307.989 15.1396C313.064 10.0808 319.122 6.12494 325.787 3.52041C332.453 0.915878 339.581 -0.281826 346.728 0.00104715C355.17 -0.237916 363.522 1.79744 370.916 5.89301C378.31 9.98857 384.477 15.9961 388.775 23.2921L370.801 33.2933C368.255 29.1745 364.713 25.7684 360.504 23.3909C356.296 21.0135 351.557 19.741 346.728 19.6936C342.358 19.7103 338.037 20.6241 334.031 22.3793C330.026 24.1345 326.423 26.6934 323.44 29.8991C320.457 33.1049 318.157 36.8904 316.686 41.0207C315.215 45.151 314.602 49.5379 314.883 53.9151C314.602 58.2927 315.215 62.6822 316.686 66.8129C318.157 70.9435 320.455 74.7282 323.438 77.9344C326.421 81.1407 330.026 83.7016 334.031 85.4576C338.037 87.2135 342.357 88.1289 346.728 88.1465C354.645 88.1117 362.3 85.2903 368.36 80.1752V67.6696H341.552V48.2868H390.005V88.3014C384.676 94.5718 378.036 99.5882 370.558 102.992C363.079 106.395 354.947 108.102 346.736 107.994C339.583 108.246 332.453 107.021 325.79 104.396C319.128 101.77 313.075 97.7999 308.003 92.7302C302.932 87.6606 298.951 81.5989 296.308 74.9225C293.666 68.2462 292.417 61.0955 292.639 53.9151Z" fill="#181A26"/>
</g>
<defs>
<clipPath id="clip0_3028_6557">
<rect width="390" height="108" fill="white"/>
</clipPath>
</defs>
</svg>
