<svg width="58" height="18" viewBox="0 0 58 18" fill="none" xmlns="http://www.w3.org/2000/svg">
<path d="M11.8055 15.5511L6.3133 8.71938L11.6041 2.39722H7.87807L2.83905 8.65424V2.39722H0V15.5511H2.83905V8.78835L7.77736 15.5511H11.8055Z" fill="white"/>
<path d="M31.9306 7.54332C32.7517 7.54332 36.257 8.06442 36.257 11.5129C36.257 15.1606 32.7207 15.5514 32.7207 15.5514H24.4515V13.421H31.1017C33.0306 13.421 33.0112 11.6048 33.0112 11.6048C33.0112 9.60856 30.7299 9.68902 30.7299 9.68902H28.1814C27.0117 9.68902 23.9983 9.27137 23.9983 6.19076C23.9983 2.48942 27.7321 2.39746 27.7321 2.39746H35.3003V4.50101H29.0877C27.0814 4.50485 27.1124 6.04899 27.1124 6.04899C27.1124 6.04899 27.1317 7.55098 28.8708 7.55098L31.9229 7.54332H31.9306Z" fill="white"/>
<path d="M20.0555 15.5513C22.054 15.5513 23.8744 14.103 23.8744 11.8768C23.8744 9.33644 21.9766 8.5433 21.9766 8.5433C21.9766 8.5433 23.4832 8.02986 23.3399 5.75005C23.1347 2.4472 19.366 2.39355 19.366 2.39355H12.0535V15.5398C12.0535 15.5398 18.3706 15.5475 20.0555 15.5475V15.5513ZM14.7376 4.5316H18.3978C18.3978 4.5316 20.3886 4.44347 20.3886 6.07957C20.3886 7.48577 19.1375 7.57773 18.7308 7.60455H14.7376V4.5316ZM18.0724 13.4094H14.7376V9.71194H18.8548C18.8548 9.71194 20.9347 9.78857 20.9347 11.5396C20.9347 13.2907 19.3777 13.4094 18.0763 13.4094H18.0724Z" fill="white"/>
<path d="M57.6377 6.52941C57.4156 5.79396 57.0961 5.06235 56.6675 4.35756C55.4674 2.3734 53.6868 1.00594 51.836 0.439037C51.836 0.439037 51.8321 0.439034 51.8204 0.435203C51.7815 0.423712 51.7425 0.412222 51.6996 0.400731C51.6957 0.400731 51.688 0.396899 51.6802 0.393068C50.8736 0.159413 47.1565 -0.756057 45.1616 1.41196C45.1421 1.43111 45.1265 1.4541 45.107 1.47708C42.4926 2.38872 40.5366 4.40352 40.0067 6.85116C40.0067 6.85116 39.921 7.30315 39.9171 7.30698C39.8041 8.02327 39.7145 9.22602 39.9677 10.7314C40.0184 10.9765 40.0846 11.2255 40.1548 11.4706C40.3769 12.2061 40.6964 12.9377 41.125 13.6425C42.325 15.6267 44.1057 16.9941 45.9564 17.561C45.9564 17.561 45.9603 17.561 45.9759 17.5648C46.0149 17.5763 46.0538 17.5878 46.0928 17.5993C46.1006 17.5993 46.1045 17.6032 46.1084 17.607C46.9149 17.8445 50.632 18.7599 52.627 16.5881C52.6465 16.5689 52.662 16.546 52.6815 16.523C55.1362 15.665 57.0104 13.8379 57.6688 11.5932C57.7935 11.1834 58.0078 10.3139 57.9961 9.20304C58.0234 8.33736 57.9065 7.43338 57.6338 6.52941H57.6377ZM44.4018 2.64536C44.7174 2.52662 45.0447 2.4117 45.3759 2.31211C48.2085 1.45793 51.0606 1.5422 53.2894 2.38489C55.257 3.13182 56.7376 4.46864 57.2909 6.28043C57.3221 6.38385 57.3493 6.48344 57.3727 6.58686C57.3805 6.61367 57.3844 6.64432 57.3922 6.67113C57.3922 6.71709 57.3727 6.7554 57.3415 6.76306C57.3143 6.77072 57.287 6.74774 57.2636 6.7171C57.2558 6.69412 57.248 6.67113 57.2402 6.64815C56.8311 5.53349 56.0635 4.6142 55.0466 3.92089C52.6387 2.27381 48.8358 1.89077 45.0681 3.16247C44.7719 3.26206 44.4797 3.36931 44.1953 3.48805C44.2264 3.20077 44.2966 2.91732 44.3979 2.64536H44.4018ZM40.0457 8.69359C40.0457 8.66295 40.0418 8.63614 40.0418 8.60549C40.0496 8.57485 40.0651 8.54804 40.0924 8.54421C40.1197 8.54421 40.147 8.56336 40.1626 8.60167C40.1665 8.62465 40.1704 8.64763 40.1742 8.67061C40.221 8.9081 40.2795 9.14175 40.3574 9.37158C40.56 9.96146 40.86 10.4939 41.2379 10.9612C43.0108 13.1445 46.5448 13.9451 50.3203 13.1292C50.9009 13.0258 51.4659 12.8688 52.0075 12.6619C52.1204 12.6236 52.2373 12.5815 52.3503 12.5393C52.5997 12.4474 52.8296 12.344 53.0478 12.2291C53.1179 12.3363 53.1803 12.4474 53.2387 12.5585C53.3283 12.7385 53.4062 12.9262 53.4647 13.1254C53.1023 13.2824 52.7283 13.428 52.3425 13.5582C48.002 15.0023 43.7823 14.4124 41.573 12.1371C41.0081 11.5549 40.5756 10.8616 40.3067 10.0649C40.1548 9.61672 40.069 9.15707 40.0457 8.69359ZM53.3906 15.347C53.075 15.4658 52.7478 15.5769 52.4166 15.6803C49.5839 16.5306 46.7318 16.4502 44.5031 15.6075C42.5354 14.8644 41.0548 13.5238 40.5015 11.712C40.4704 11.6124 40.4431 11.509 40.4197 11.4055C40.4119 11.3787 40.4041 11.3481 40.4002 11.3213C40.4002 11.2753 40.4197 11.237 40.4509 11.2293C40.4782 11.2217 40.5054 11.2408 40.5288 11.2753C40.5366 11.2983 40.5444 11.3213 40.5561 11.3442C40.9652 12.4589 41.7328 13.3782 42.7497 14.0715C45.1577 15.7148 48.9605 16.1016 52.7283 14.8299C53.0244 14.7303 53.3166 14.6193 53.6011 14.5043C53.5699 14.7916 53.4998 15.0751 53.3984 15.347H53.3906ZM57.4545 11.3404C57.4506 11.3711 57.4468 11.4017 57.439 11.4323C57.4234 11.463 57.4 11.4821 57.3766 11.4821C57.3454 11.4821 57.3221 11.4477 57.3143 11.4055C57.3143 11.3787 57.3143 11.3557 57.3143 11.3289C57.3104 10.8386 57.2285 10.356 57.0532 9.88869C56.9363 9.57459 56.7844 9.27965 56.6051 9.00769C56.3597 8.63614 56.0558 8.30672 55.709 8.01178C53.7141 6.3532 50.1762 6.00464 46.7824 7.29166C47.4877 7.52532 48.2786 7.58277 49.0813 7.41423C49.0813 7.41423 49.0852 7.41423 49.0891 7.41423C49.2177 7.37593 49.3501 7.34146 49.4826 7.31081C50.406 7.10397 51.4542 7.10014 52.5218 7.34145C54.1388 7.70917 55.2219 8.17266 56.0051 9.22219C56.0051 9.22219 56.1921 9.47117 55.9622 9.80442C55.2297 10.7352 54.2128 11.5741 53.0322 12.1946C52.8335 11.8997 52.5919 11.6354 52.3192 11.4055C51.9763 11.5588 51.6217 11.6966 51.2555 11.8231C48.8553 12.6466 46.4435 12.7194 44.4914 12.1678C43.0653 11.7656 41.8886 11.0301 41.1444 10.0113C40.9029 9.67801 40.7041 9.31795 40.56 8.92725C40.2872 8.19181 40.2249 7.41807 40.3457 6.64049C40.3496 6.60985 40.3574 6.5792 40.3613 6.54856C40.3769 6.51792 40.4002 6.49876 40.4236 6.49876C40.4548 6.49876 40.4782 6.5294 40.486 6.57537C40.486 6.60218 40.486 6.62517 40.486 6.65198C40.486 7.14228 40.5717 7.62491 40.747 8.09222C40.8639 8.40631 41.012 8.70126 41.1951 8.97322C41.4406 9.34094 41.7445 9.67418 42.0912 9.96529C44.0862 11.6239 47.6241 11.9724 51.0178 10.6854C50.3125 10.4518 49.5216 10.3943 48.7189 10.5628C48.7189 10.5628 48.715 10.5628 48.7111 10.5628C48.5826 10.6011 48.454 10.6356 48.3176 10.6663C47.3942 10.8731 46.3461 10.8769 45.2785 10.6356C43.6615 10.2679 42.5783 9.80442 41.7951 8.75488C41.7951 8.75488 41.6081 8.5059 41.838 8.16883C42.5744 7.23803 43.5874 6.39917 44.768 5.77865C44.9667 6.07359 45.2044 6.33789 45.4811 6.56771C45.8239 6.4145 46.1824 6.27277 46.5487 6.15019C48.9488 5.32665 51.3607 5.25388 53.3127 5.80546C54.7388 6.20765 55.9155 6.94309 56.6597 7.96199C56.9013 8.29523 57.1 8.65529 57.2441 9.046C57.5169 9.78144 57.5753 10.5552 57.4545 11.3289V11.3404ZM57.7039 9.44436C57.6766 9.44436 57.6494 9.42521 57.6338 9.3869C57.6338 9.36392 57.626 9.34093 57.6221 9.31795C57.5753 9.08047 57.5169 8.85064 57.4351 8.61698C57.2324 8.0271 56.9363 7.49467 56.5545 7.02736C54.7855 4.84402 51.2477 4.04346 47.4721 4.85551C46.8915 4.95893 46.3266 5.11598 45.785 5.32282C45.672 5.36113 45.5551 5.40326 45.4421 5.4454C45.1927 5.53733 44.9629 5.64075 44.7447 5.75566C44.6745 5.64841 44.6122 5.54115 44.5537 5.42624C44.4641 5.24621 44.3862 5.05852 44.3278 4.86317C44.6901 4.70229 45.0642 4.56057 45.4499 4.43034C49.7904 2.98627 54.0102 3.57615 56.2194 5.85142C56.7844 6.43364 57.2169 7.12695 57.4857 7.92368C57.6377 8.37184 57.7234 8.83149 57.7507 9.29497C57.7507 9.32178 57.7507 9.35243 57.7546 9.38307C57.7468 9.41371 57.7273 9.44053 57.7039 9.44053V9.44436Z" fill="white"/>
</svg>
