<svg width="58" height="18" viewBox="0 0 58 18" fill="none" xmlns="http://www.w3.org/2000/svg">
<path d="M11.8055 15.5502L6.3133 8.7184L11.6041 2.39624H7.87807L2.83905 8.65327V2.39624H0V15.5502H2.83905V8.78737L7.77736 15.5502H11.8055Z" fill="#140661"/>
<path d="M31.9308 7.54234C32.7519 7.54234 36.2572 8.06345 36.2572 11.5119C36.2572 15.1596 32.721 15.5504 32.721 15.5504H24.4517V13.42H31.102C33.0308 13.42 33.0114 11.6039 33.0114 11.6039C33.0114 9.60758 30.7301 9.68805 30.7301 9.68805H28.1816C27.0119 9.68805 23.9985 9.2704 23.9985 6.18978C23.9985 2.48844 27.7323 2.39648 27.7323 2.39648H35.3005V4.50004H29.0879C27.0816 4.50387 27.1126 6.04801 27.1126 6.04801C27.1126 6.04801 27.1319 7.55 28.871 7.55L31.9231 7.54234H31.9308Z" fill="#140661"/>
<path d="M20.0552 15.5503C22.0538 15.5503 23.8742 14.102 23.8742 11.8758C23.8742 9.33546 21.9763 8.54232 21.9763 8.54232C21.9763 8.54232 23.483 8.02889 23.3397 5.74908C23.1344 2.44622 19.3658 2.39258 19.3658 2.39258H12.0532V15.5388C12.0532 15.5388 18.3704 15.5465 20.0552 15.5465V15.5503ZM14.7373 4.53062H18.3975C18.3975 4.53062 20.3883 4.4425 20.3883 6.0786C20.3883 7.4848 19.1373 7.57676 18.7306 7.60358H14.7373V4.53062ZM18.0721 13.4085H14.7373V9.71096H18.8545C18.8545 9.71096 20.9344 9.78759 20.9344 11.5386C20.9344 13.2897 19.3774 13.4085 18.076 13.4085H18.0721Z" fill="#140661"/>
<path d="M57.6377 6.52843C57.4156 5.79299 57.0961 5.06138 56.6675 4.35658C55.4674 2.37242 53.6868 1.00496 51.836 0.438061C51.836 0.438061 51.8321 0.438057 51.8204 0.434227C51.7815 0.422735 51.7425 0.411245 51.6996 0.399754C51.6957 0.399754 51.688 0.395922 51.6802 0.392092C50.8736 0.158436 47.1565 -0.757033 45.1616 1.41099C45.1421 1.43014 45.1265 1.45312 45.107 1.4761C42.4926 2.38774 40.5366 4.40254 40.0067 6.85018C40.0067 6.85018 39.921 7.30217 39.9171 7.306C39.8041 8.02229 39.7145 9.22505 39.9677 10.7304C40.0184 10.9755 40.0846 11.2245 40.1548 11.4697C40.3769 12.2051 40.6964 12.9367 41.125 13.6415C42.325 15.6257 44.1057 16.9931 45.9564 17.56C45.9564 17.56 45.9603 17.56 45.9759 17.5639C46.0149 17.5754 46.0538 17.5869 46.0928 17.5983C46.1006 17.5983 46.1045 17.6022 46.1084 17.606C46.9149 17.8435 50.632 18.759 52.627 16.5871C52.6465 16.568 52.662 16.545 52.6815 16.522C55.1362 15.664 57.0104 13.8369 57.6688 11.5922C57.7935 11.1824 58.0078 10.3129 57.9961 9.20206C58.0234 8.33639 57.9065 7.43241 57.6338 6.52843H57.6377ZM44.4018 2.64438C44.7174 2.52564 45.0447 2.41073 45.3759 2.31114C48.2085 1.45695 51.0606 1.54122 53.2894 2.38392C55.257 3.13085 56.7376 4.46766 57.2909 6.27945C57.3221 6.38288 57.3493 6.48246 57.3727 6.58588C57.3805 6.6127 57.3844 6.64334 57.3922 6.67015C57.3922 6.71612 57.3727 6.75442 57.3415 6.76208C57.3143 6.76975 57.287 6.74677 57.2636 6.71612C57.2558 6.69314 57.248 6.67015 57.2402 6.64717C56.8311 5.53252 56.0635 4.61322 55.0466 3.91991C52.6387 2.27283 48.8358 1.88979 45.0681 3.16149C44.7719 3.26108 44.4797 3.36833 44.1953 3.48707C44.2264 3.19979 44.2966 2.91634 44.3979 2.64438H44.4018ZM40.0457 8.69262C40.0457 8.66197 40.0418 8.63516 40.0418 8.60452C40.0496 8.57387 40.0651 8.54706 40.0924 8.54323C40.1197 8.54323 40.147 8.56238 40.1626 8.60069C40.1665 8.62367 40.1704 8.64665 40.1742 8.66963C40.221 8.90712 40.2795 9.14078 40.3574 9.3706C40.56 9.96049 40.86 10.4929 41.2379 10.9602C43.0108 13.1436 46.5448 13.9441 50.3203 13.1283C50.9009 13.0248 51.4659 12.8678 52.0075 12.6609C52.1204 12.6226 52.2373 12.5805 52.3503 12.5384C52.5997 12.4464 52.8296 12.343 53.0478 12.2281C53.1179 12.3354 53.1803 12.4464 53.2387 12.5575C53.3283 12.7375 53.4062 12.9252 53.4647 13.1244C53.1023 13.2815 52.7283 13.427 52.3425 13.5573C48.002 15.0013 43.7823 14.4114 41.573 12.1362C41.0081 11.5539 40.5756 10.8606 40.3067 10.0639C40.1548 9.61575 40.069 9.1561 40.0457 8.69262ZM53.3906 15.3461C53.075 15.4648 52.7478 15.5759 52.4166 15.6793C49.5839 16.5297 46.7318 16.4492 44.5031 15.6065C42.5354 14.8634 41.0548 13.5228 40.5015 11.711C40.4704 11.6114 40.4431 11.508 40.4197 11.4046C40.4119 11.3777 40.4041 11.3471 40.4002 11.3203C40.4002 11.2743 40.4197 11.236 40.4509 11.2284C40.4782 11.2207 40.5054 11.2398 40.5288 11.2743C40.5366 11.2973 40.5444 11.3203 40.5561 11.3433C40.9652 12.4579 41.7328 13.3772 42.7497 14.0705C45.1577 15.7138 48.9605 16.1007 52.7283 14.829C53.0244 14.7294 53.3166 14.6183 53.6011 14.5034C53.5699 14.7907 53.4998 15.0741 53.3984 15.3461H53.3906ZM57.4545 11.3394C57.4506 11.3701 57.4468 11.4007 57.439 11.4314C57.4234 11.462 57.4 11.4812 57.3766 11.4812C57.3454 11.4812 57.3221 11.4467 57.3143 11.4046C57.3143 11.3777 57.3143 11.3548 57.3143 11.3279C57.3104 10.8377 57.2285 10.355 57.0532 9.88771C56.9363 9.57362 56.7844 9.27867 56.6051 9.00671C56.3597 8.63516 56.0558 8.30574 55.709 8.0108C53.7141 6.35223 50.1762 6.00366 46.7824 7.29069C47.4877 7.52434 48.2786 7.58179 49.0813 7.41326C49.0813 7.41326 49.0852 7.41326 49.0891 7.41326C49.2177 7.37495 49.3501 7.34048 49.4826 7.30984C50.406 7.103 51.4542 7.09916 52.5218 7.34048C54.1388 7.7082 55.2219 8.17168 56.0051 9.22122C56.0051 9.22122 56.1921 9.47019 55.9622 9.80344C55.2297 10.7342 54.2128 11.5731 53.0322 12.1936C52.8335 11.8987 52.5919 11.6344 52.3192 11.4046C51.9763 11.5578 51.6217 11.6957 51.2555 11.8221C48.8553 12.6456 46.4435 12.7184 44.4914 12.1668C43.0653 11.7646 41.8886 11.0292 41.1444 10.0103C40.9029 9.67703 40.7041 9.31697 40.56 8.92627C40.2872 8.19083 40.2249 7.41709 40.3457 6.63951C40.3496 6.60887 40.3574 6.57823 40.3613 6.54758C40.3769 6.51694 40.4002 6.49779 40.4236 6.49779C40.4548 6.49779 40.4782 6.52843 40.486 6.57439C40.486 6.60121 40.486 6.62419 40.486 6.65101C40.486 7.1413 40.5717 7.62393 40.747 8.09124C40.8639 8.40534 41.012 8.70028 41.1951 8.97224C41.4406 9.33996 41.7445 9.67321 42.0912 9.96432C44.0862 11.6229 47.6241 11.9715 51.0178 10.6844C50.3125 10.4508 49.5216 10.3933 48.7189 10.5619C48.7189 10.5619 48.715 10.5619 48.7111 10.5619C48.5826 10.6002 48.454 10.6346 48.3176 10.6653C47.3942 10.8721 46.3461 10.876 45.2785 10.6346C43.6615 10.2669 42.5783 9.80344 41.7951 8.7539C41.7951 8.7539 41.6081 8.50493 41.838 8.16785C42.5744 7.23706 43.5874 6.3982 44.768 5.77767C44.9667 6.07261 45.2044 6.33691 45.4811 6.56674C45.8239 6.41352 46.1824 6.27179 46.5487 6.14922C48.9488 5.32567 51.3607 5.2529 53.3127 5.80448C54.7388 6.20667 55.9155 6.94212 56.6597 7.96101C56.9013 8.29426 57.1 8.65432 57.2441 9.04502C57.5169 9.78046 57.5753 10.5542 57.4545 11.3279V11.3394ZM57.7039 9.44338C57.6766 9.44338 57.6494 9.42423 57.6338 9.38593C57.6338 9.36294 57.626 9.33996 57.6221 9.31698C57.5753 9.07949 57.5169 8.84966 57.4351 8.61601C57.2324 8.02612 56.9363 7.4937 56.5545 7.02638C54.7855 4.84304 51.2477 4.04249 47.4721 4.85454C46.8915 4.95796 46.3266 5.11501 45.785 5.32185C45.672 5.36015 45.5551 5.40228 45.4421 5.44442C45.1927 5.53635 44.9629 5.63977 44.7447 5.75468C44.6745 5.64743 44.6122 5.54018 44.5537 5.42527C44.4641 5.24524 44.3862 5.05754 44.3278 4.86219C44.6901 4.70132 45.0642 4.55959 45.4499 4.42936C49.7904 2.98529 54.0102 3.57517 56.2194 5.85044C56.7844 6.43267 57.2169 7.12597 57.4857 7.9227C57.6377 8.37086 57.7234 8.83051 57.7507 9.29399C57.7507 9.32081 57.7507 9.35145 57.7546 9.38209C57.7468 9.41274 57.7273 9.43955 57.7039 9.43955V9.44338Z" fill="#0090D4"/>
</svg>
