<svg width="24" height="24" viewBox="0 0 24 24" xmlns="http://www.w3.org/2000/svg" xmlns:xlink="http://www.w3.org/1999/xlink">
    <defs>
        <path d="m16.865 13-3.633 4.36a1 1 0 1 0 1.537 1.28l5-6c.039-.047.058-.102.087-.154.024-.042.053-.078.071-.124a.985.985 0 0 0 .072-.358.994.994 0 0 0-.072-.366c-.018-.046-.047-.082-.071-.124-.029-.052-.048-.107-.087-.154l-5-6a1.002 1.002 0 0 0-1.409-.128 1 1 0 0 0-.128 1.408L16.865 11H6a1 1 0 0 0 0 2h10.865z" id="a"/>
    </defs>
    <use fill="#576ACA" xlink:href="#a" fill-rule="evenodd"/>
</svg>
