<svg width="108" height="34" viewBox="0 0 108 34" fill="none" xmlns="http://www.w3.org/2000/svg">
<path d="M22.0252 29.4228L11.7836 16.5154L21.6555 4.58081H14.6987L5.29506 16.3956V4.58081H0V29.4228H5.29506V16.6494L14.5121 29.4228H22.0252Z" fill="#140661"/>
<path d="M59.587 14.2983C61.122 14.2983 67.6633 15.2852 67.6633 21.7953C67.6633 28.679 61.0621 29.4227 61.0621 29.4227H45.6346V25.3975H58.0485C61.6501 25.401 61.6149 21.9645 61.6149 21.9645C61.6149 18.1966 57.3619 18.3481 57.3619 18.3481H52.609C50.4262 18.3481 44.8038 17.5621 44.8038 11.7428C44.8038 4.74986 51.7747 4.57715 51.7747 4.57715H65.903V8.54595L54.306 8.56005C50.56 8.56005 50.6199 11.4714 50.6199 11.4714C50.6199 11.4714 50.6516 14.3124 53.8976 14.3124L59.5905 14.2947L59.587 14.2983Z" fill="#140661"/>
<path d="M37.428 29.4226C41.1599 29.4226 44.5538 26.6874 44.5538 22.4825C44.5538 17.6818 41.0121 16.1874 41.0121 16.1874C41.0121 16.1874 43.8286 15.2216 43.561 10.918C43.1808 4.67926 36.143 4.58057 36.143 4.58057H22.4935V29.412C22.4935 29.412 34.2841 29.4226 37.428 29.4226ZM27.5069 8.61281H34.3404C34.3404 8.61281 38.0547 8.44715 38.0547 11.5313C38.0547 14.1889 35.7205 14.3616 34.9636 14.418H27.5069V8.61281ZM33.7314 25.3798H27.5069V18.3938H35.1854C35.1854 18.3938 39.0651 18.5419 39.0651 21.8445C39.0651 25.1472 36.1571 25.3798 33.7314 25.3798Z" fill="#140661"/>
<path d="M107.978 16.4836C107.954 15.8316 107.894 15.1689 107.788 14.5028C107.788 14.4957 107.788 14.4887 107.788 14.4816C107.672 13.7696 107.514 13.0506 107.299 12.3351C106.887 10.9428 106.288 9.56114 105.496 8.22528C103.25 4.45033 99.916 1.85263 96.4482 0.7917C96.4482 0.7917 88.5303 -1.84477 84.2562 2.5047C84.1787 2.58577 84.1048 2.67036 84.0309 2.75848C81.2707 3.73482 78.8978 5.39142 77.1867 7.48509C75.863 9.10293 74.937 10.9851 74.5181 13.0224C74.4829 13.1951 74.3878 13.6991 74.3808 13.7485C74.0604 15.6765 74.1414 17.2696 74.1414 17.2696C74.1414 17.3296 74.1414 17.386 74.1414 17.4459C74.1766 18.824 74.4019 20.248 74.8244 21.6649C75.2328 23.0537 75.8348 24.4353 76.6269 25.7712C78.8731 29.5461 82.2072 32.1438 85.6715 33.2083C85.6715 33.2083 93.5894 35.8448 97.8635 31.4953C97.9409 31.4107 98.0149 31.3261 98.0888 31.2415C100.853 30.2617 103.222 28.6086 104.936 26.5149C105.729 25.5421 106.376 24.4812 106.862 23.3462C107.925 20.9459 108.059 18.3059 107.982 16.4836H107.978ZM83.0169 4.28115C84.3935 3.64318 85.932 3.13562 87.636 2.80782C90.2061 2.29322 92.6952 2.20863 94.9906 2.51528C100.05 3.18497 104.158 5.72627 106.105 9.59638C106.123 9.62811 106.141 9.65983 106.155 9.69507C106.169 9.7409 106.155 9.77614 106.13 9.79377C106.098 9.81139 106.042 9.80082 106.003 9.75499C105.986 9.71975 105.965 9.68802 105.943 9.6563C104.356 7.16434 101.814 5.26806 98.7014 4.16836C95.561 3.0616 91.8361 2.762 87.9177 3.47399C85.9461 3.81941 84.1893 4.39394 82.6543 5.15527C82.7564 4.86272 82.8761 4.57017 83.0134 4.2882L83.0169 4.28115ZM82.2987 7.17139C83.876 6.45236 85.5764 5.85668 87.3544 5.4161C93.1106 3.98507 98.2719 4.69001 101.99 6.81892C104.574 8.2993 106.454 10.467 107.348 13.0858C107.362 13.1211 107.376 13.1563 107.387 13.1916V13.2057C107.426 13.3326 107.38 13.3854 107.331 13.389C107.306 13.389 107.274 13.3749 107.26 13.3431C107.246 13.3185 107.235 13.2903 107.225 13.255C106.412 11.2953 105.032 9.61753 103.215 8.33454C99.4231 5.64873 93.7338 4.66534 87.3438 6.32899C85.587 6.80835 83.9147 7.43222 82.355 8.17241C82.348 8.10896 82.3374 8.04199 82.3304 7.97502C82.3022 7.70362 82.2952 7.43575 82.2987 7.16787V7.17139ZM99.1028 29.7153C97.7262 30.3568 96.1877 30.8609 94.4872 31.1922C91.9171 31.7068 89.4245 31.7914 87.1326 31.4883C82.0734 30.8186 77.9648 28.2773 76.0214 24.4071C76.0038 24.3754 75.9862 24.3402 75.9721 24.3085C75.9545 24.2626 75.9721 24.2309 75.9967 24.2098C76.0284 24.1886 76.0812 24.2062 76.12 24.2521C76.1411 24.2838 76.1587 24.319 76.1798 24.3507C77.7712 26.8462 80.3095 28.739 83.4218 29.8387C86.5622 30.9525 90.2835 31.2486 94.202 30.5366C96.1736 30.1912 97.9269 29.6131 99.4689 28.8518C99.3703 29.1479 99.2471 29.4404 99.1098 29.7189L99.1028 29.7153ZM99.8245 26.8286C98.2437 27.5476 96.5468 28.1433 94.7653 28.5804C89.0126 30.0114 83.8478 29.31 80.13 27.1776C77.5494 25.7007 75.6658 23.533 74.7716 20.9106C74.7575 20.8754 74.7469 20.8402 74.7364 20.8049C74.7364 20.7979 74.7364 20.7943 74.7364 20.7943C74.6976 20.6639 74.7469 20.6146 74.7962 20.611C74.8208 20.611 74.849 20.6216 74.8701 20.6533C74.8842 20.6815 74.8948 20.7097 74.9053 20.7415C75.7186 22.7012 77.1022 24.3789 78.9154 25.6655C82.7071 28.3477 88.3965 29.3347 94.7864 27.6675C96.5397 27.1881 98.212 26.5643 99.7717 25.8241C99.7822 25.891 99.7893 25.9545 99.7963 26.0215C99.8245 26.2893 99.835 26.5572 99.828 26.8251L99.8245 26.8286ZM107.739 16.8255C107.714 16.8255 107.69 16.8044 107.672 16.7727C107.665 16.748 107.658 16.7198 107.651 16.6951C107.207 14.9433 106.295 13.4136 105.024 12.1483C101.377 8.52135 94.7724 7.06918 87.805 8.76103C87.2769 8.89144 86.7558 9.04301 86.2453 9.20162C85.1469 9.55409 84.0907 9.97705 83.0944 10.4599C83.3091 10.8547 83.5591 11.2283 83.8478 11.5702C85.9144 10.5868 88.2521 9.87836 90.699 9.55409C92.3325 9.33556 93.938 9.31088 95.4624 9.45187C99.5956 9.83254 103.19 11.4504 105.384 13.893C106.792 15.4579 107.623 17.3648 107.647 19.5043C107.647 19.5607 107.647 19.6206 107.647 19.677C107.647 19.7334 107.647 19.7827 107.647 19.8356C107.637 19.9132 107.584 19.9273 107.538 19.9237C107.51 19.9237 107.475 19.8991 107.468 19.8744C107.461 19.8215 107.457 19.7686 107.447 19.7158C107.218 18.0169 106.531 16.4942 105.482 15.2006C104.102 13.4912 102.092 12.18 99.6625 11.3834C96.7721 10.4353 93.2796 10.2203 89.5477 10.9428C87.8296 11.2636 86.189 11.7605 84.6681 12.395C85.073 12.7404 85.5166 13.0435 85.9919 13.2973C87.7064 12.536 89.6604 12.0037 91.7728 11.7923C95.9729 11.3623 99.909 12.247 102.729 14.0128C103.817 14.6931 104.736 15.5038 105.44 16.4237C106.408 17.682 106.968 19.1413 106.993 20.7379C107.007 21.6297 106.855 22.5003 106.563 23.3356C106.552 23.3638 106.538 23.392 106.531 23.4202C106.507 23.4555 106.475 23.4766 106.454 23.4696C106.422 23.4625 106.412 23.4238 106.412 23.3779C106.419 23.3462 106.422 23.318 106.429 23.2898C106.574 22.6201 106.626 21.9363 106.567 21.2384C106.461 19.9484 106 18.7571 105.267 17.7032C105.109 17.4776 104.94 17.2626 104.76 17.0476C102.046 13.8895 96.6735 12.2329 91.0229 13.2903C89.9526 13.463 88.9316 13.7097 87.9634 14.0269C88.8471 14.2208 89.7836 14.2666 90.7342 14.1432C90.7342 14.1432 92.2727 13.9388 92.9099 13.8013C93.0367 13.7837 93.2338 13.752 93.3254 13.7485H93.3711C94.283 13.6568 97.0925 13.5017 100.032 14.5592C100.032 14.5592 103.331 15.68 104.771 18.1861C104.771 18.1861 105.095 18.6478 104.623 19.2928C104.187 19.8532 103.704 20.3855 103.183 20.8825C102.676 21.3477 101.793 21.9716 101.793 21.9716C100.993 22.5144 100.134 23.0078 99.233 23.459L99.226 23.4484C99.1626 23.4801 99.0957 23.5119 99.0288 23.5436C99.0288 23.5506 99.0288 23.5542 99.0359 23.5577C99.0711 23.6211 99.1028 23.6811 99.1344 23.7445C99.2401 23.963 99.3351 24.1886 99.4231 24.4177C97.9093 25.1403 96.2686 25.736 94.5259 26.1624C87.7698 27.8543 81.3763 26.677 77.6338 23.3674C75.8735 21.813 74.6976 19.7863 74.3491 17.3719C74.342 17.3296 74.335 17.2908 74.3315 17.252C74.3315 17.1921 74.3596 17.1745 74.3843 17.1745C74.4089 17.1745 74.4301 17.1956 74.4512 17.2273C74.4582 17.2555 74.4653 17.2802 74.4723 17.3049C74.9124 19.0602 75.8278 20.5864 77.0987 21.8553C80.7461 25.4822 87.3508 26.9343 94.3182 25.239C94.8498 25.1086 95.3638 24.9605 95.8743 24.7984C96.9763 24.4459 98.029 24.0265 99.0288 23.5401C98.8141 23.1453 98.5606 22.7752 98.2754 22.4333C96.2053 23.4167 93.8711 24.1216 91.4277 24.4459C89.7942 24.6644 88.1887 24.6926 86.6608 24.5481C82.5311 24.1675 78.9365 22.5496 76.7466 20.1105C75.3384 18.5421 74.5075 16.6352 74.4829 14.4957V14.3195C74.4829 14.2666 74.4829 14.2137 74.4829 14.1609C74.4899 14.0798 74.5462 14.0692 74.5885 14.0727C74.6166 14.0727 74.6519 14.0939 74.6589 14.1221C74.6659 14.175 74.673 14.2243 74.68 14.2772C74.9089 15.9761 75.5989 17.4987 76.6445 18.7958C78.0246 20.5018 80.0349 21.8165 82.4642 22.6131C85.3581 23.5577 88.8471 23.7762 92.579 23.0501C94.2971 22.7294 95.9412 22.2324 97.4586 21.598C97.0573 21.2525 96.6137 20.9494 96.1384 20.6956C94.4238 21.457 92.4663 21.9892 90.3575 22.2007C86.1609 22.6272 82.2212 21.746 79.4012 19.9837C78.3133 19.3034 77.3944 18.4892 76.6903 17.5728C75.7221 16.3109 75.1623 14.8552 75.1412 13.2585C75.1271 12.3668 75.2785 11.4962 75.5743 10.6644C75.5848 10.6362 75.5954 10.608 75.606 10.5762C75.6271 10.541 75.6552 10.5199 75.6799 10.5304C75.7045 10.534 75.7221 10.5762 75.7221 10.6221C75.7151 10.6503 75.7081 10.682 75.701 10.7067C75.5567 11.3764 75.5039 12.0637 75.5602 12.7616C75.6658 14.0516 76.127 15.2465 76.8628 16.2933C77.0213 16.5189 77.1902 16.7374 77.3698 16.9489C80.0807 20.1035 85.4567 21.7601 91.1074 20.7027C92.1776 20.5335 93.1986 20.2833 94.1633 19.9696C93.2796 19.7757 92.3431 19.7299 91.3925 19.8532C91.3925 19.8532 89.854 20.0577 89.2168 20.1916C89.09 20.2092 88.8929 20.241 88.8013 20.2445H88.7591C87.8472 20.3361 85.0378 20.4912 82.098 19.4338C82.098 19.4338 78.8027 18.3129 77.3592 15.8069C77.3592 15.8069 77.0353 15.3452 77.5071 14.7037C77.9472 14.1397 78.426 13.611 78.9506 13.1105C79.4575 12.6488 80.3412 12.0214 80.3412 12.0214C81.1404 11.4821 81.9994 10.9816 82.9007 10.534L82.9078 10.548C82.9747 10.5128 83.0416 10.4846 83.1085 10.4494C83.1085 10.4458 83.1049 10.4388 83.1014 10.4353C83.0697 10.3718 83.0345 10.3119 83.0028 10.2485C82.8937 10.0299 82.7986 9.80434 82.7106 9.57523C84.2245 8.84915 85.8651 8.257 87.6078 7.83051C94.364 6.13513 100.757 7.31943 104.5 10.6256C106.26 12.1835 107.44 14.2032 107.788 16.6211C107.795 16.6634 107.799 16.7022 107.802 16.7409C107.802 16.8009 107.778 16.8114 107.749 16.815L107.739 16.8255Z" fill="#0090D4"/>
</svg>
