<svg width="132" height="132" viewBox="0 0 132 132" fill="none" xmlns="http://www.w3.org/2000/svg">
<path d="M50.0688 0H45.5171V4.55171H50.0688V0Z" fill="#003E1F"/>
<path d="M54.6207 0H50.069V4.55171H54.6207V0Z" fill="#003E1F"/>
<path d="M59.1727 0H54.621V4.55171H59.1727V0Z" fill="#003E1F"/>
<path d="M63.724 0H59.1722V4.55171H63.724V0Z" fill="#003E1F"/>
<path d="M68.276 0H63.7242V4.55171H68.276V0Z" fill="#003E1F"/>
<path d="M72.8272 0H68.2755V4.55171H72.8272V0Z" fill="#003E1F"/>
<path d="M86.4825 0H81.9308V4.55171H86.4825V0Z" fill="#003E1F"/>
<path d="M91.0345 0H86.4828V4.55171H91.0345V0Z" fill="#003E1F"/>
<path d="M95.5858 0H91.0341V4.55171H95.5858V0Z" fill="#003E1F"/>
<path d="M63.724 4.552H59.1722V9.10371H63.724V4.552Z" fill="#003E1F"/>
<path d="M68.276 4.552H63.7242V9.10371H68.276V4.552Z" fill="#003E1F"/>
<path d="M72.8272 4.552H68.2755V9.10371H72.8272V4.552Z" fill="#003E1F"/>
<path d="M77.3792 4.552H72.8275V9.10371H77.3792V4.552Z" fill="#003E1F"/>
<path d="M81.9312 4.552H77.3795V9.10371H81.9312V4.552Z" fill="#003E1F"/>
<path d="M91.0345 4.552H86.4828V9.10371H91.0345V4.552Z" fill="#003E1F"/>
<path d="M40.9655 9.10327H36.4138V13.655H40.9655V9.10327Z" fill="#003E1F"/>
<path d="M45.5174 9.10327H40.9657V13.655H45.5174V9.10327Z" fill="#003E1F"/>
<path d="M63.724 9.10327H59.1722V13.655H63.724V9.10327Z" fill="#003E1F"/>
<path d="M72.8272 9.10327H68.2755V13.655H72.8272V9.10327Z" fill="#003E1F"/>
<path d="M86.4825 9.10327H81.9308V13.655H86.4825V9.10327Z" fill="#003E1F"/>
<path d="M91.0345 9.10327H86.4828V13.655H91.0345V9.10327Z" fill="#003E1F"/>
<path d="M40.9655 13.6553H36.4138V18.207H40.9655V13.6553Z" fill="#003E1F"/>
<path d="M45.5174 13.6553H40.9657V18.207H45.5174V13.6553Z" fill="#003E1F"/>
<path d="M50.0688 13.6553H45.5171V18.207H50.0688V13.6553Z" fill="#003E1F"/>
<path d="M54.6207 13.6553H50.069V18.207H54.6207V13.6553Z" fill="#003E1F"/>
<path d="M59.1727 13.6553H54.621V18.207H59.1727V13.6553Z" fill="#003E1F"/>
<path d="M68.276 13.6553H63.7242V18.207H68.276V13.6553Z" fill="#003E1F"/>
<path d="M72.8272 13.6553H68.2755V18.207H72.8272V13.6553Z" fill="#003E1F"/>
<path d="M81.9312 13.6553H77.3795V18.207H81.9312V13.6553Z" fill="#003E1F"/>
<path d="M86.4825 13.6553H81.9308V18.207H86.4825V13.6553Z" fill="#003E1F"/>
<path d="M40.9655 18.2073H36.4138V22.759H40.9655V18.2073Z" fill="#003E1F"/>
<path d="M50.0688 18.2073H45.5171V22.759H50.0688V18.2073Z" fill="#003E1F"/>
<path d="M54.6207 18.2073H50.069V22.759H54.6207V18.2073Z" fill="#003E1F"/>
<path d="M59.1727 18.2073H54.621V22.759H59.1727V18.2073Z" fill="#003E1F"/>
<path d="M72.8272 18.2073H68.2755V22.759H72.8272V18.2073Z" fill="#003E1F"/>
<path d="M77.3792 18.2073H72.8275V22.759H77.3792V18.2073Z" fill="#003E1F"/>
<path d="M91.0345 18.2073H86.4828V22.759H91.0345V18.2073Z" fill="#003E1F"/>
<path d="M40.9655 22.7585H36.4138V27.3103H40.9655V22.7585Z" fill="#003E1F"/>
<path d="M45.5174 22.7585H40.9657V27.3103H45.5174V22.7585Z" fill="#003E1F"/>
<path d="M50.0688 22.7585H45.5171V27.3103H50.0688V22.7585Z" fill="#003E1F"/>
<path d="M81.9312 22.7585H77.3795V27.3103H81.9312V22.7585Z" fill="#003E1F"/>
<path d="M95.5858 22.7585H91.0341V27.3103H95.5858V22.7585Z" fill="#003E1F"/>
<path d="M40.9655 27.3105H36.4138V31.8623H40.9655V27.3105Z" fill="#003E1F"/>
<path d="M50.0688 27.3105H45.5171V31.8623H50.0688V27.3105Z" fill="#003E1F"/>
<path d="M59.1727 27.3105H54.621V31.8623H59.1727V27.3105Z" fill="#003E1F"/>
<path d="M68.276 27.3105H63.7242V31.8623H68.276V27.3105Z" fill="#003E1F"/>
<path d="M77.3792 27.3105H72.8275V31.8623H77.3792V27.3105Z" fill="#003E1F"/>
<path d="M86.4825 27.3105H81.9308V31.8623H86.4825V27.3105Z" fill="#003E1F"/>
<path d="M95.5858 27.3105H91.0341V31.8623H95.5858V27.3105Z" fill="#003E1F"/>
<path d="M40.9655 31.8618H36.4138V36.4135H40.9655V31.8618Z" fill="#003E1F"/>
<path d="M45.5174 31.8618H40.9657V36.4135H45.5174V31.8618Z" fill="#003E1F"/>
<path d="M50.0688 31.8618H45.5171V36.4135H50.0688V31.8618Z" fill="#003E1F"/>
<path d="M54.6207 31.8618H50.069V36.4135H54.6207V31.8618Z" fill="#003E1F"/>
<path d="M59.1727 31.8618H54.621V36.4135H59.1727V31.8618Z" fill="#003E1F"/>
<path d="M68.276 31.8618H63.7242V36.4135H68.276V31.8618Z" fill="#003E1F"/>
<path d="M77.3792 31.8618H72.8275V36.4135H77.3792V31.8618Z" fill="#003E1F"/>
<path d="M81.9312 31.8618H77.3795V36.4135H81.9312V31.8618Z" fill="#003E1F"/>
<path d="M86.4825 31.8618H81.9308V36.4135H86.4825V31.8618Z" fill="#003E1F"/>
<path d="M91.0345 31.8618H86.4828V36.4135H91.0345V31.8618Z" fill="#003E1F"/>
<path d="M95.5858 31.8618H91.0341V36.4135H95.5858V31.8618Z" fill="#003E1F"/>
<path d="M4.55171 36.4138H0V40.9655H4.55171V36.4138Z" fill="#003E1F"/>
<path d="M13.655 36.4138H9.10327V40.9655H13.655V36.4138Z" fill="#003E1F"/>
<path d="M18.207 36.4138H13.6553V40.9655H18.207V36.4138Z" fill="#003E1F"/>
<path d="M22.7589 36.4138H18.2072V40.9655H22.7589V36.4138Z" fill="#003E1F"/>
<path d="M27.3103 36.4138H22.7585V40.9655H27.3103V36.4138Z" fill="#003E1F"/>
<path d="M31.8623 36.4138H27.3105V40.9655H31.8623V36.4138Z" fill="#003E1F"/>
<path d="M45.5174 36.4138H40.9657V40.9655H45.5174V36.4138Z" fill="#003E1F"/>
<path d="M50.0688 36.4138H45.5171V40.9655H50.0688V36.4138Z" fill="#003E1F"/>
<path d="M59.1727 36.4138H54.621V40.9655H59.1727V36.4138Z" fill="#003E1F"/>
<path d="M77.3792 36.4138H72.8275V40.9655H77.3792V36.4138Z" fill="#003E1F"/>
<path d="M81.9312 36.4138H77.3795V40.9655H81.9312V36.4138Z" fill="#003E1F"/>
<path d="M95.5858 36.4138H91.0341V40.9655H95.5858V36.4138Z" fill="#003E1F"/>
<path d="M104.69 36.4138H100.138V40.9655H104.69V36.4138Z" fill="#003E1F"/>
<path d="M109.241 36.4138H104.689V40.9655H109.241V36.4138Z" fill="#003E1F"/>
<path d="M113.793 36.4138H109.241V40.9655H113.793V36.4138Z" fill="#003E1F"/>
<path d="M118.345 36.4138H113.793V40.9655H118.345V36.4138Z" fill="#003E1F"/>
<path d="M122.896 36.4138H118.345V40.9655H122.896V36.4138Z" fill="#003E1F"/>
<path d="M9.10371 40.9658H4.552V45.5175H9.10371V40.9658Z" fill="#003E1F"/>
<path d="M13.655 40.9658H9.10327V45.5175H13.655V40.9658Z" fill="#003E1F"/>
<path d="M59.1727 40.9658H54.621V45.5175H59.1727V40.9658Z" fill="#003E1F"/>
<path d="M63.724 40.9658H59.1722V45.5175H63.724V40.9658Z" fill="#003E1F"/>
<path d="M68.276 40.9658H63.7242V45.5175H68.276V40.9658Z" fill="#003E1F"/>
<path d="M72.8272 40.9658H68.2755V45.5175H72.8272V40.9658Z" fill="#003E1F"/>
<path d="M95.5858 40.9658H91.0341V45.5175H95.5858V40.9658Z" fill="#003E1F"/>
<path d="M104.69 40.9658H100.138V45.5175H104.69V40.9658Z" fill="#003E1F"/>
<path d="M113.793 40.9658H109.241V45.5175H113.793V40.9658Z" fill="#003E1F"/>
<path d="M118.345 40.9658H113.793V45.5175H118.345V40.9658Z" fill="#003E1F"/>
<path d="M127.448 40.9658H122.896V45.5175H127.448V40.9658Z" fill="#003E1F"/>
<path d="M4.55171 45.5171H0V50.0688H4.55171V45.5171Z" fill="#003E1F"/>
<path d="M9.10371 45.5171H4.552V50.0688H9.10371V45.5171Z" fill="#003E1F"/>
<path d="M13.655 45.5171H9.10327V50.0688H13.655V45.5171Z" fill="#003E1F"/>
<path d="M18.207 45.5171H13.6553V50.0688H18.207V45.5171Z" fill="#003E1F"/>
<path d="M22.7589 45.5171H18.2072V50.0688H22.7589V45.5171Z" fill="#003E1F"/>
<path d="M27.3103 45.5171H22.7585V50.0688H27.3103V45.5171Z" fill="#003E1F"/>
<path d="M31.8623 45.5171H27.3105V50.0688H31.8623V45.5171Z" fill="#003E1F"/>
<path d="M50.0688 45.5171H45.5171V50.0688H50.0688V45.5171Z" fill="#003E1F"/>
<path d="M59.1727 45.5171H54.621V50.0688H59.1727V45.5171Z" fill="#003E1F"/>
<path d="M63.724 45.5171H59.1722V50.0688H63.724V45.5171Z" fill="#003E1F"/>
<path d="M68.276 45.5171H63.7242V50.0688H68.276V45.5171Z" fill="#003E1F"/>
<path d="M72.8272 45.5171H68.2755V50.0688H72.8272V45.5171Z" fill="#003E1F"/>
<path d="M77.3792 45.5171H72.8275V50.0688H77.3792V45.5171Z" fill="#003E1F"/>
<path d="M81.9312 45.5171H77.3795V50.0688H81.9312V45.5171Z" fill="#003E1F"/>
<path d="M109.241 45.5171H104.689V50.0688H109.241V45.5171Z" fill="#003E1F"/>
<path d="M118.345 45.5171H113.793V50.0688H118.345V45.5171Z" fill="#003E1F"/>
<path d="M122.896 45.5171H118.345V50.0688H122.896V45.5171Z" fill="#003E1F"/>
<path d="M4.55171 50.0691H0V54.6208H4.55171V50.0691Z" fill="#003E1F"/>
<path d="M9.10371 50.0691H4.552V54.6208H9.10371V50.0691Z" fill="#003E1F"/>
<path d="M18.207 50.0691H13.6553V54.6208H18.207V50.0691Z" fill="#003E1F"/>
<path d="M22.7589 50.0691H18.2072V54.6208H22.7589V50.0691Z" fill="#003E1F"/>
<path d="M40.9655 50.0691H36.4138V54.6208H40.9655V50.0691Z" fill="#003E1F"/>
<path d="M50.0688 50.0691H45.5171V54.6208H50.0688V50.0691Z" fill="#003E1F"/>
<path d="M54.6207 50.0691H50.069V54.6208H54.6207V50.0691Z" fill="#003E1F"/>
<path d="M63.724 50.0691H59.1722V54.6208H63.724V50.0691Z" fill="#003E1F"/>
<path d="M72.8272 50.0691H68.2755V54.6208H72.8272V50.0691Z" fill="#003E1F"/>
<path d="M81.9312 50.0691H77.3795V54.6208H81.9312V50.0691Z" fill="#003E1F"/>
<path d="M86.4825 50.0691H81.9308V54.6208H86.4825V50.0691Z" fill="#003E1F"/>
<path d="M91.0345 50.0691H86.4828V54.6208H91.0345V50.0691Z" fill="#003E1F"/>
<path d="M95.5858 50.0691H91.0341V54.6208H95.5858V50.0691Z" fill="#003E1F"/>
<path d="M100.138 50.0691H95.5861V54.6208H100.138V50.0691Z" fill="#003E1F"/>
<path d="M104.69 50.0691H100.138V54.6208H104.69V50.0691Z" fill="#003E1F"/>
<path d="M109.241 50.0691H104.689V54.6208H109.241V50.0691Z" fill="#003E1F"/>
<path d="M113.793 50.0691H109.241V54.6208H113.793V50.0691Z" fill="#003E1F"/>
<path d="M118.345 50.0691H113.793V54.6208H118.345V50.0691Z" fill="#003E1F"/>
<path d="M132 50.0691H127.448V54.6208H132V50.0691Z" fill="#003E1F"/>
<path d="M13.655 54.6211H9.10327V59.1728H13.655V54.6211Z" fill="#003E1F"/>
<path d="M18.207 54.6211H13.6553V59.1728H18.207V54.6211Z" fill="#003E1F"/>
<path d="M27.3103 54.6211H22.7585V59.1728H27.3103V54.6211Z" fill="#003E1F"/>
<path d="M31.8623 54.6211H27.3105V59.1728H31.8623V54.6211Z" fill="#003E1F"/>
<path d="M40.9655 54.6211H36.4138V59.1728H40.9655V54.6211Z" fill="#003E1F"/>
<path d="M45.5174 54.6211H40.9657V59.1728H45.5174V54.6211Z" fill="#003E1F"/>
<path d="M54.6207 54.6211H50.069V59.1728H54.6207V54.6211Z" fill="#003E1F"/>
<path d="M68.276 54.6211H63.7242V59.1728H68.276V54.6211Z" fill="#003E1F"/>
<path d="M72.8272 54.6211H68.2755V59.1728H72.8272V54.6211Z" fill="#003E1F"/>
<path d="M100.138 54.6211H95.5861V59.1728H100.138V54.6211Z" fill="#003E1F"/>
<path d="M104.69 54.6211H100.138V59.1728H104.69V54.6211Z" fill="#003E1F"/>
<path d="M4.55171 59.1724H0V63.7241H4.55171V59.1724Z" fill="#003E1F"/>
<path d="M9.10371 59.1724H4.552V63.7241H9.10371V59.1724Z" fill="#003E1F"/>
<path d="M13.655 59.1724H9.10327V63.7241H13.655V59.1724Z" fill="#003E1F"/>
<path d="M18.207 59.1724H13.6553V63.7241H18.207V59.1724Z" fill="#003E1F"/>
<path d="M27.3103 59.1724H22.7585V63.7241H27.3103V59.1724Z" fill="#003E1F"/>
<path d="M40.9655 59.1724H36.4138V63.7241H40.9655V59.1724Z" fill="#003E1F"/>
<path d="M50.0688 59.1724H45.5171V63.7241H50.0688V59.1724Z" fill="#003E1F"/>
<path d="M54.6207 59.1724H50.069V63.7241H54.6207V59.1724Z" fill="#003E1F"/>
<path d="M59.1727 59.1724H54.621V63.7241H59.1727V59.1724Z" fill="#003E1F"/>
<path d="M72.8272 59.1724H68.2755V63.7241H72.8272V59.1724Z" fill="#003E1F"/>
<path d="M77.3792 59.1724H72.8275V63.7241H77.3792V59.1724Z" fill="#003E1F"/>
<path d="M91.0345 59.1724H86.4828V63.7241H91.0345V59.1724Z" fill="#003E1F"/>
<path d="M95.5858 59.1724H91.0341V63.7241H95.5858V59.1724Z" fill="#003E1F"/>
<path d="M109.241 59.1724H104.689V63.7241H109.241V59.1724Z" fill="#003E1F"/>
<path d="M118.345 59.1724H113.793V63.7241H118.345V59.1724Z" fill="#003E1F"/>
<path d="M127.448 59.1724H122.896V63.7241H127.448V59.1724Z" fill="#003E1F"/>
<path d="M4.55171 63.7244H0V68.2761H4.55171V63.7244Z" fill="#003E1F"/>
<path d="M13.655 63.7244H9.10327V68.2761H13.655V63.7244Z" fill="#003E1F"/>
<path d="M18.207 63.7244H13.6553V68.2761H18.207V63.7244Z" fill="#003E1F"/>
<path d="M22.7589 63.7244H18.2072V68.2761H22.7589V63.7244Z" fill="#003E1F"/>
<path d="M27.3103 63.7244H22.7585V68.2761H27.3103V63.7244Z" fill="#003E1F"/>
<path d="M31.8623 63.7244H27.3105V68.2761H31.8623V63.7244Z" fill="#003E1F"/>
<path d="M45.5174 63.7244H40.9657V68.2761H45.5174V63.7244Z" fill="#003E1F"/>
<path d="M59.1727 63.7244H54.621V68.2761H59.1727V63.7244Z" fill="#003E1F"/>
<path d="M81.9312 63.7244H77.3795V68.2761H81.9312V63.7244Z" fill="#003E1F"/>
<path d="M86.4825 63.7244H81.9308V68.2761H86.4825V63.7244Z" fill="#003E1F"/>
<path d="M95.5858 63.7244H91.0341V68.2761H95.5858V63.7244Z" fill="#003E1F"/>
<path d="M118.345 63.7244H113.793V68.2761H118.345V63.7244Z" fill="#003E1F"/>
<path d="M122.896 63.7244H118.345V68.2761H122.896V63.7244Z" fill="#003E1F"/>
<path d="M127.448 63.7244H122.896V68.2761H127.448V63.7244Z" fill="#003E1F"/>
<path d="M132 63.7244H127.448V68.2761H132V63.7244Z" fill="#003E1F"/>
<path d="M9.10371 68.2756H4.552V72.8273H9.10371V68.2756Z" fill="#003E1F"/>
<path d="M13.655 68.2756H9.10327V72.8273H13.655V68.2756Z" fill="#003E1F"/>
<path d="M18.207 68.2756H13.6553V72.8273H18.207V68.2756Z" fill="#003E1F"/>
<path d="M27.3103 68.2756H22.7585V72.8273H27.3103V68.2756Z" fill="#003E1F"/>
<path d="M36.4135 68.2756H31.8618V72.8273H36.4135V68.2756Z" fill="#003E1F"/>
<path d="M59.1727 68.2756H54.621V72.8273H59.1727V68.2756Z" fill="#003E1F"/>
<path d="M68.276 68.2756H63.7242V72.8273H68.276V68.2756Z" fill="#003E1F"/>
<path d="M77.3792 68.2756H72.8275V72.8273H77.3792V68.2756Z" fill="#003E1F"/>
<path d="M81.9312 68.2756H77.3795V72.8273H81.9312V68.2756Z" fill="#003E1F"/>
<path d="M86.4825 68.2756H81.9308V72.8273H86.4825V68.2756Z" fill="#003E1F"/>
<path d="M91.0345 68.2756H86.4828V72.8273H91.0345V68.2756Z" fill="#003E1F"/>
<path d="M95.5858 68.2756H91.0341V72.8273H95.5858V68.2756Z" fill="#003E1F"/>
<path d="M104.69 68.2756H100.138V72.8273H104.69V68.2756Z" fill="#003E1F"/>
<path d="M113.793 68.2756H109.241V72.8273H113.793V68.2756Z" fill="#003E1F"/>
<path d="M127.448 68.2756H122.896V72.8273H127.448V68.2756Z" fill="#003E1F"/>
<path d="M132 68.2756H127.448V72.8273H132V68.2756Z" fill="#003E1F"/>
<path d="M9.10371 72.8276H4.552V77.3793H9.10371V72.8276Z" fill="#003E1F"/>
<path d="M13.655 72.8276H9.10327V77.3793H13.655V72.8276Z" fill="#003E1F"/>
<path d="M22.7589 72.8276H18.2072V77.3793H22.7589V72.8276Z" fill="#003E1F"/>
<path d="M31.8623 72.8276H27.3105V77.3793H31.8623V72.8276Z" fill="#003E1F"/>
<path d="M36.4135 72.8276H31.8618V77.3793H36.4135V72.8276Z" fill="#003E1F"/>
<path d="M40.9655 72.8276H36.4138V77.3793H40.9655V72.8276Z" fill="#003E1F"/>
<path d="M45.5174 72.8276H40.9657V77.3793H45.5174V72.8276Z" fill="#003E1F"/>
<path d="M54.6207 72.8276H50.069V77.3793H54.6207V72.8276Z" fill="#003E1F"/>
<path d="M81.9312 72.8276H77.3795V77.3793H81.9312V72.8276Z" fill="#003E1F"/>
<path d="M95.5858 72.8276H91.0341V77.3793H95.5858V72.8276Z" fill="#003E1F"/>
<path d="M109.241 72.8276H104.689V77.3793H109.241V72.8276Z" fill="#003E1F"/>
<path d="M113.793 72.8276H109.241V77.3793H113.793V72.8276Z" fill="#003E1F"/>
<path d="M4.55171 77.3794H0V81.9311H4.55171V77.3794Z" fill="#003E1F"/>
<path d="M9.10371 77.3794H4.552V81.9311H9.10371V77.3794Z" fill="#003E1F"/>
<path d="M13.655 77.3794H9.10327V81.9311H13.655V77.3794Z" fill="#003E1F"/>
<path d="M18.207 77.3794H13.6553V81.9311H18.207V77.3794Z" fill="#003E1F"/>
<path d="M22.7589 77.3794H18.2072V81.9311H22.7589V77.3794Z" fill="#003E1F"/>
<path d="M27.3103 77.3794H22.7585V81.9311H27.3103V77.3794Z" fill="#003E1F"/>
<path d="M45.5174 77.3794H40.9657V81.9311H45.5174V77.3794Z" fill="#003E1F"/>
<path d="M50.0688 77.3794H45.5171V81.9311H50.0688V77.3794Z" fill="#003E1F"/>
<path d="M54.6207 77.3794H50.069V81.9311H54.6207V77.3794Z" fill="#003E1F"/>
<path d="M59.1727 77.3794H54.621V81.9311H59.1727V77.3794Z" fill="#003E1F"/>
<path d="M63.724 77.3794H59.1722V81.9311H63.724V77.3794Z" fill="#003E1F"/>
<path d="M68.276 77.3794H63.7242V81.9311H68.276V77.3794Z" fill="#003E1F"/>
<path d="M72.8272 77.3794H68.2755V81.9311H72.8272V77.3794Z" fill="#003E1F"/>
<path d="M100.138 77.3794H95.5861V81.9311H100.138V77.3794Z" fill="#003E1F"/>
<path d="M109.241 77.3794H104.689V81.9311H109.241V77.3794Z" fill="#003E1F"/>
<path d="M118.345 77.3794H113.793V81.9311H118.345V77.3794Z" fill="#003E1F"/>
<path d="M127.448 77.3794H122.896V81.9311H127.448V77.3794Z" fill="#003E1F"/>
<path d="M132 77.3794H127.448V81.9311H132V77.3794Z" fill="#003E1F"/>
<path d="M4.55171 81.9309H0V86.4826H4.55171V81.9309Z" fill="#003E1F"/>
<path d="M13.655 81.9309H9.10327V86.4826H13.655V81.9309Z" fill="#003E1F"/>
<path d="M18.207 81.9309H13.6553V86.4826H18.207V81.9309Z" fill="#003E1F"/>
<path d="M31.8623 81.9309H27.3105V86.4826H31.8623V81.9309Z" fill="#003E1F"/>
<path d="M40.9655 81.9309H36.4138V86.4826H40.9655V81.9309Z" fill="#003E1F"/>
<path d="M59.1727 81.9309H54.621V86.4826H59.1727V81.9309Z" fill="#003E1F"/>
<path d="M63.724 81.9309H59.1722V86.4826H63.724V81.9309Z" fill="#003E1F"/>
<path d="M68.276 81.9309H63.7242V86.4826H68.276V81.9309Z" fill="#003E1F"/>
<path d="M72.8272 81.9309H68.2755V86.4826H72.8272V81.9309Z" fill="#003E1F"/>
<path d="M81.9312 81.9309H77.3795V86.4826H81.9312V81.9309Z" fill="#003E1F"/>
<path d="M86.4825 81.9309H81.9308V86.4826H86.4825V81.9309Z" fill="#003E1F"/>
<path d="M118.345 81.9309H113.793V86.4826H118.345V81.9309Z" fill="#003E1F"/>
<path d="M122.896 81.9309H118.345V86.4826H122.896V81.9309Z" fill="#003E1F"/>
<path d="M132 81.9309H127.448V86.4826H132V81.9309Z" fill="#003E1F"/>
<path d="M4.55171 86.4827H0V91.0344H4.55171V86.4827Z" fill="#003E1F"/>
<path d="M13.655 86.4827H9.10327V91.0344H13.655V86.4827Z" fill="#003E1F"/>
<path d="M22.7589 86.4827H18.2072V91.0344H22.7589V86.4827Z" fill="#003E1F"/>
<path d="M45.5174 86.4827H40.9657V91.0344H45.5174V86.4827Z" fill="#003E1F"/>
<path d="M63.724 86.4827H59.1722V91.0344H63.724V86.4827Z" fill="#003E1F"/>
<path d="M72.8272 86.4827H68.2755V91.0344H72.8272V86.4827Z" fill="#003E1F"/>
<path d="M91.0345 86.4827H86.4828V91.0344H91.0345V86.4827Z" fill="#003E1F"/>
<path d="M95.5858 86.4827H91.0341V91.0344H95.5858V86.4827Z" fill="#003E1F"/>
<path d="M100.138 86.4827H95.5861V91.0344H100.138V86.4827Z" fill="#003E1F"/>
<path d="M104.69 86.4827H100.138V91.0344H104.69V86.4827Z" fill="#003E1F"/>
<path d="M109.241 86.4827H104.689V91.0344H109.241V86.4827Z" fill="#003E1F"/>
<path d="M113.793 86.4827H109.241V91.0344H113.793V86.4827Z" fill="#003E1F"/>
<path d="M4.55171 91.0342H0V95.5859H4.55171V91.0342Z" fill="#003E1F"/>
<path d="M18.207 91.0342H13.6553V95.5859H18.207V91.0342Z" fill="#003E1F"/>
<path d="M27.3103 91.0342H22.7585V95.5859H27.3103V91.0342Z" fill="#003E1F"/>
<path d="M31.8623 91.0342H27.3105V95.5859H31.8623V91.0342Z" fill="#003E1F"/>
<path d="M54.6207 91.0342H50.069V95.5859H54.6207V91.0342Z" fill="#003E1F"/>
<path d="M68.276 91.0342H63.7242V95.5859H68.276V91.0342Z" fill="#003E1F"/>
<path d="M72.8272 91.0342H68.2755V95.5859H72.8272V91.0342Z" fill="#003E1F"/>
<path d="M86.4825 91.0342H81.9308V95.5859H86.4825V91.0342Z" fill="#003E1F"/>
<path d="M95.5858 91.0342H91.0341V95.5859H95.5858V91.0342Z" fill="#003E1F"/>
<path d="M100.138 91.0342H95.5861V95.5859H100.138V91.0342Z" fill="#003E1F"/>
<path d="M104.69 91.0342H100.138V95.5859H104.69V91.0342Z" fill="#003E1F"/>
<path d="M109.241 91.0342H104.689V95.5859H109.241V91.0342Z" fill="#003E1F"/>
<path d="M113.793 91.0342H109.241V95.5859H113.793V91.0342Z" fill="#003E1F"/>
<path d="M118.345 91.0342H113.793V95.5859H118.345V91.0342Z" fill="#003E1F"/>
<path d="M122.896 91.0342H118.345V95.5859H122.896V91.0342Z" fill="#003E1F"/>
<path d="M127.448 91.0342H122.896V95.5859H127.448V91.0342Z" fill="#003E1F"/>
<path d="M40.9655 95.5859H36.4138V100.138H40.9655V95.5859Z" fill="#003E1F"/>
<path d="M45.5174 95.5859H40.9657V100.138H45.5174V95.5859Z" fill="#003E1F"/>
<path d="M72.8272 95.5859H68.2755V100.138H72.8272V95.5859Z" fill="#003E1F"/>
<path d="M95.5858 95.5859H91.0341V100.138H95.5858V95.5859Z" fill="#003E1F"/>
<path d="M113.793 95.5859H109.241V100.138H113.793V95.5859Z" fill="#003E1F"/>
<path d="M127.448 95.5859H122.896V100.138H127.448V95.5859Z" fill="#003E1F"/>
<path d="M50.0688 100.138H45.5171V104.69H50.0688V100.138Z" fill="#003E1F"/>
<path d="M59.1727 100.138H54.621V104.69H59.1727V100.138Z" fill="#003E1F"/>
<path d="M72.8272 100.138H68.2755V104.69H72.8272V100.138Z" fill="#003E1F"/>
<path d="M77.3792 100.138H72.8275V104.69H77.3792V100.138Z" fill="#003E1F"/>
<path d="M81.9312 100.138H77.3795V104.69H81.9312V100.138Z" fill="#003E1F"/>
<path d="M91.0345 100.138H86.4828V104.69H91.0345V100.138Z" fill="#003E1F"/>
<path d="M95.5858 100.138H91.0341V104.69H95.5858V100.138Z" fill="#003E1F"/>
<path d="M104.69 100.138H100.138V104.69H104.69V100.138Z" fill="#003E1F"/>
<path d="M113.793 100.138H109.241V104.69H113.793V100.138Z" fill="#003E1F"/>
<path d="M118.345 100.138H113.793V104.69H118.345V100.138Z" fill="#003E1F"/>
<path d="M122.896 100.138H118.345V104.69H122.896V100.138Z" fill="#003E1F"/>
<path d="M40.9655 104.689H36.4138V109.241H40.9655V104.689Z" fill="#003E1F"/>
<path d="M50.0688 104.689H45.5171V109.241H50.0688V104.689Z" fill="#003E1F"/>
<path d="M59.1727 104.689H54.621V109.241H59.1727V104.689Z" fill="#003E1F"/>
<path d="M68.276 104.689H63.7242V109.241H68.276V104.689Z" fill="#003E1F"/>
<path d="M77.3792 104.689H72.8275V109.241H77.3792V104.689Z" fill="#003E1F"/>
<path d="M91.0345 104.689H86.4828V109.241H91.0345V104.689Z" fill="#003E1F"/>
<path d="M95.5858 104.689H91.0341V109.241H95.5858V104.689Z" fill="#003E1F"/>
<path d="M113.793 104.689H109.241V109.241H113.793V104.689Z" fill="#003E1F"/>
<path d="M122.896 104.689H118.345V109.241H122.896V104.689Z" fill="#003E1F"/>
<path d="M127.448 104.689H122.896V109.241H127.448V104.689Z" fill="#003E1F"/>
<path d="M132 104.689H127.448V109.241H132V104.689Z" fill="#003E1F"/>
<path d="M40.9655 109.241H36.4138V113.793H40.9655V109.241Z" fill="#003E1F"/>
<path d="M45.5174 109.241H40.9657V113.793H45.5174V109.241Z" fill="#003E1F"/>
<path d="M50.0688 109.241H45.5171V113.793H50.0688V109.241Z" fill="#003E1F"/>
<path d="M59.1727 109.241H54.621V113.793H59.1727V109.241Z" fill="#003E1F"/>
<path d="M72.8272 109.241H68.2755V113.793H72.8272V109.241Z" fill="#003E1F"/>
<path d="M77.3792 109.241H72.8275V113.793H77.3792V109.241Z" fill="#003E1F"/>
<path d="M81.9312 109.241H77.3795V113.793H81.9312V109.241Z" fill="#003E1F"/>
<path d="M86.4825 109.241H81.9308V113.793H86.4825V109.241Z" fill="#003E1F"/>
<path d="M91.0345 109.241H86.4828V113.793H91.0345V109.241Z" fill="#003E1F"/>
<path d="M95.5858 109.241H91.0341V113.793H95.5858V109.241Z" fill="#003E1F"/>
<path d="M100.138 109.241H95.5861V113.793H100.138V109.241Z" fill="#003E1F"/>
<path d="M104.69 109.241H100.138V113.793H104.69V109.241Z" fill="#003E1F"/>
<path d="M109.241 109.241H104.689V113.793H109.241V109.241Z" fill="#003E1F"/>
<path d="M113.793 109.241H109.241V113.793H113.793V109.241Z" fill="#003E1F"/>
<path d="M122.896 109.241H118.345V113.793H122.896V109.241Z" fill="#003E1F"/>
<path d="M127.448 109.241H122.896V113.793H127.448V109.241Z" fill="#003E1F"/>
<path d="M132 109.241H127.448V113.793H132V109.241Z" fill="#003E1F"/>
<path d="M40.9655 113.793H36.4138V118.345H40.9655V113.793Z" fill="#003E1F"/>
<path d="M45.5174 113.793H40.9657V118.345H45.5174V113.793Z" fill="#003E1F"/>
<path d="M63.724 113.793H59.1722V118.345H63.724V113.793Z" fill="#003E1F"/>
<path d="M68.276 113.793H63.7242V118.345H68.276V113.793Z" fill="#003E1F"/>
<path d="M72.8272 113.793H68.2755V118.345H72.8272V113.793Z" fill="#003E1F"/>
<path d="M77.3792 113.793H72.8275V118.345H77.3792V113.793Z" fill="#003E1F"/>
<path d="M86.4825 113.793H81.9308V118.345H86.4825V113.793Z" fill="#003E1F"/>
<path d="M95.5858 113.793H91.0341V118.345H95.5858V113.793Z" fill="#003E1F"/>
<path d="M109.241 113.793H104.689V118.345H109.241V113.793Z" fill="#003E1F"/>
<path d="M40.9655 118.344H36.4138V122.896H40.9655V118.344Z" fill="#003E1F"/>
<path d="M45.5174 118.344H40.9657V122.896H45.5174V118.344Z" fill="#003E1F"/>
<path d="M50.0688 118.344H45.5171V122.896H50.0688V118.344Z" fill="#003E1F"/>
<path d="M54.6207 118.344H50.069V122.896H54.6207V118.344Z" fill="#003E1F"/>
<path d="M59.1727 118.344H54.621V122.896H59.1727V118.344Z" fill="#003E1F"/>
<path d="M63.724 118.344H59.1722V122.896H63.724V118.344Z" fill="#003E1F"/>
<path d="M68.276 118.344H63.7242V122.896H68.276V118.344Z" fill="#003E1F"/>
<path d="M72.8272 118.344H68.2755V122.896H72.8272V118.344Z" fill="#003E1F"/>
<path d="M81.9312 118.344H77.3795V122.896H81.9312V118.344Z" fill="#003E1F"/>
<path d="M91.0345 118.344H86.4828V122.896H91.0345V118.344Z" fill="#003E1F"/>
<path d="M109.241 118.344H104.689V122.896H109.241V118.344Z" fill="#003E1F"/>
<path d="M122.896 118.344H118.345V122.896H122.896V118.344Z" fill="#003E1F"/>
<path d="M127.448 118.344H122.896V122.896H127.448V118.344Z" fill="#003E1F"/>
<path d="M50.0688 122.896H45.5171V127.448H50.0688V122.896Z" fill="#003E1F"/>
<path d="M72.8272 122.896H68.2755V127.448H72.8272V122.896Z" fill="#003E1F"/>
<path d="M77.3792 122.896H72.8275V127.448H77.3792V122.896Z" fill="#003E1F"/>
<path d="M95.5858 122.896H91.0341V127.448H95.5858V122.896Z" fill="#003E1F"/>
<path d="M100.138 122.896H95.5861V127.448H100.138V122.896Z" fill="#003E1F"/>
<path d="M118.345 122.896H113.793V127.448H118.345V122.896Z" fill="#003E1F"/>
<path d="M122.896 122.896H118.345V127.448H122.896V122.896Z" fill="#003E1F"/>
<path d="M132 122.896H127.448V127.448H132V122.896Z" fill="#003E1F"/>
<path d="M40.9655 127.448H36.4138V131.999H40.9655V127.448Z" fill="#003E1F"/>
<path d="M45.5174 127.448H40.9657V131.999H45.5174V127.448Z" fill="#003E1F"/>
<path d="M63.724 127.448H59.1722V131.999H63.724V127.448Z" fill="#003E1F"/>
<path d="M68.276 127.448H63.7242V131.999H68.276V127.448Z" fill="#003E1F"/>
<path d="M72.8272 127.448H68.2755V131.999H72.8272V127.448Z" fill="#003E1F"/>
<path d="M77.3792 127.448H72.8275V131.999H77.3792V127.448Z" fill="#003E1F"/>
<path d="M91.0345 127.448H86.4828V131.999H91.0345V127.448Z" fill="#003E1F"/>
<path d="M95.5858 127.448H91.0341V131.999H95.5858V127.448Z" fill="#003E1F"/>
<path d="M100.138 127.448H95.5861V131.999H100.138V127.448Z" fill="#003E1F"/>
<path d="M104.69 127.448H100.138V131.999H104.69V127.448Z" fill="#003E1F"/>
<path d="M113.793 127.448H109.241V131.999H113.793V127.448Z" fill="#003E1F"/>
<path d="M118.345 127.448H113.793V131.999H118.345V127.448Z" fill="#003E1F"/>
<path d="M122.896 127.448H118.345V131.999H122.896V127.448Z" fill="#003E1F"/>
<path d="M31.862 0H0V31.862H31.862V0Z" fill="#003E1F"/>
<path d="M27.3106 4.552H4.552V27.3106H27.3106V4.552Z" fill="#70BF54"/>
<path d="M22.7584 9.10327H9.10327V22.7584H22.7584V9.10327Z" fill="#003E1F"/>
<path d="M132 0H100.138V31.862H132V0Z" fill="#003E1F"/>
<path d="M127.448 4.552H104.689V27.3106H127.448V4.552Z" fill="#70BF54"/>
<path d="M122.896 9.10327H109.241V22.7584H122.896V9.10327Z" fill="#003E1F"/>
<path d="M31.862 100.138H0V132H31.862V100.138Z" fill="#003E1F"/>
<path d="M27.3106 104.689H4.552V127.448H27.3106V104.689Z" fill="#70BF54"/>
<path d="M22.7584 109.241H9.10327V122.896H22.7584V109.241Z" fill="#003E1F"/>
</svg>
